<svg width="201" height="200" viewBox="0 0 201 200" fill="none" xmlns="http://www.w3.org/2000/svg">
<path d="M176.492 47.0391L101.492 22.0391C100.848 21.8235 100.152 21.8235 99.5078 22.0391L24.5078 47.0391C23.8869 47.247 23.347 47.6447 22.9643 48.176C22.5816 48.7072 22.3755 49.3453 22.375 50.0001V112.5C22.375 113.329 22.7042 114.124 23.2903 114.71C23.8763 115.296 24.6712 115.625 25.5 115.625C26.3288 115.625 27.1237 115.296 27.7097 114.71C28.2958 114.124 28.625 113.329 28.625 112.5V54.336L62.9062 65.7657C58.6736 71.4509 55.7853 78.0219 54.4586 84.9845C53.132 91.947 53.4015 99.1198 55.2469 105.963C57.0924 112.806 60.4657 119.142 65.1131 124.494C69.7605 129.845 75.5609 134.073 82.0781 136.859C65.7812 141.344 51.6094 151.805 41.6328 167.055C41.2196 167.748 41.0909 168.575 41.2736 169.361C41.4563 170.148 41.9363 170.833 42.613 171.273C43.2898 171.714 44.1106 171.875 44.9037 171.724C45.6967 171.572 46.4004 171.12 46.8672 170.461C59.2266 151.5 78.7812 140.625 100.5 140.625C122.219 140.625 141.773 151.5 154.133 170.453C154.6 171.112 155.303 171.564 156.096 171.716C156.889 171.867 157.71 171.706 158.387 171.266C159.064 170.825 159.544 170.14 159.726 169.354C159.909 168.567 159.78 167.741 159.367 167.047C149.43 151.797 135.219 141.336 118.922 136.852C125.439 134.065 131.24 129.837 135.887 124.486C140.534 119.134 143.908 112.799 145.753 105.955C147.598 99.112 147.868 91.9392 146.541 84.9767C145.215 78.0141 142.326 71.4431 138.094 65.7579L176.492 52.9532C177.112 52.7441 177.65 52.3459 178.031 51.8148C178.413 51.2836 178.618 50.6462 178.618 49.9923C178.618 49.3384 178.413 48.7009 178.031 48.1698C177.65 47.6386 177.112 47.2404 176.492 47.0313V47.0391ZM141.125 93.7501C141.125 100.269 139.557 106.692 136.552 112.477C133.547 118.262 129.195 123.239 123.861 126.988C118.528 130.736 112.371 133.147 105.911 134.015C99.4498 134.883 92.875 134.184 86.7414 131.976C80.6078 129.768 75.0956 126.117 70.6703 121.33C66.2449 116.544 63.0364 110.762 61.3158 104.475C59.5951 98.1872 59.4128 91.5779 60.7842 85.2049C62.1557 78.832 65.0406 72.8827 69.1953 67.8595L99.5078 77.961C100.151 78.1795 100.849 78.1795 101.492 77.961L131.805 67.8595C137.837 75.1377 141.134 84.2967 141.125 93.7501ZM100.5 71.7032L35.3828 50.0001L100.5 28.2969L165.617 50.0001L100.5 71.7032Z" fill="#4554CE"/>
</svg>
