<svg width="201" height="200" viewBox="0 0 201 200" fill="none" xmlns="http://www.w3.org/2000/svg">
<path d="M169.25 34.375H31.75C29.2636 34.375 26.879 35.3627 25.1209 37.1209C23.3627 38.879 22.375 41.2636 22.375 43.75V156.25C22.375 158.736 23.3627 161.121 25.1209 162.879C26.879 164.637 29.2636 165.625 31.75 165.625H42.2109C42.8021 165.624 43.3809 165.456 43.8801 165.139C44.3794 164.822 44.7785 164.37 45.0312 163.836C48.3228 156.882 53.5212 151.007 60.0215 146.892C66.5218 142.777 74.0568 140.593 81.75 140.593C89.4432 140.593 96.9782 142.777 103.479 146.892C109.979 151.007 115.177 156.882 118.469 163.836C118.721 164.37 119.121 164.822 119.62 165.139C120.119 165.456 120.698 165.624 121.289 165.625H169.25C171.736 165.625 174.121 164.637 175.879 162.879C177.637 161.121 178.625 158.736 178.625 156.25V43.75C178.625 41.2636 177.637 38.879 175.879 37.1209C174.121 35.3627 171.736 34.375 169.25 34.375ZM172.375 156.25C172.375 157.079 172.046 157.874 171.46 158.46C170.874 159.046 170.079 159.375 169.25 159.375H123.219C117.473 148.579 107.759 140.436 96.125 136.664C101.42 133.515 105.535 128.716 107.837 123.002C110.139 117.288 110.502 110.976 108.869 105.036C107.237 99.0962 103.699 93.8565 98.7995 90.1221C93.9002 86.3878 87.9103 84.3652 81.75 84.3652C75.5897 84.3652 69.5998 86.3878 64.7005 90.1221C59.8012 93.8565 56.2634 99.0962 54.6308 105.036C52.9981 110.976 53.3608 117.288 55.6631 123.002C57.9655 128.716 62.0802 133.515 67.375 136.664C55.7411 140.436 46.0269 148.579 40.2812 159.375H31.75C30.9212 159.375 30.1263 159.046 29.5403 158.46C28.9542 157.874 28.625 157.079 28.625 156.25V43.75C28.625 42.9212 28.9542 42.1263 29.5403 41.5403C30.1263 40.9542 30.9212 40.625 31.75 40.625H169.25C170.079 40.625 170.874 40.9542 171.46 41.5403C172.046 42.1263 172.375 42.9212 172.375 43.75V156.25ZM81.75 134.375C77.4235 134.375 73.1942 133.092 69.5969 130.688C65.9996 128.285 63.1958 124.868 61.5401 120.871C59.8845 116.874 59.4513 112.476 60.2953 108.232C61.1394 103.989 63.2228 100.091 66.282 97.032C69.3413 93.9728 73.2391 91.8894 77.4824 91.0453C81.7257 90.2013 86.1241 90.6345 90.1212 92.2901C94.1183 93.9458 97.5347 96.7496 99.9384 100.347C102.342 103.944 103.625 108.174 103.625 112.5C103.625 115.373 103.059 118.217 101.96 120.871C100.861 123.525 99.2492 125.937 97.218 127.968C95.1867 129.999 92.7752 131.611 90.1212 132.71C87.4672 133.809 84.6227 134.375 81.75 134.375ZM153.625 62.5V137.5C153.625 138.329 153.296 139.124 152.71 139.71C152.124 140.296 151.329 140.625 150.5 140.625H138C137.171 140.625 136.376 140.296 135.79 139.71C135.204 139.124 134.875 138.329 134.875 137.5C134.875 136.671 135.204 135.876 135.79 135.29C136.376 134.704 137.171 134.375 138 134.375H147.375V65.625H53.625V75C53.625 75.8288 53.2958 76.6237 52.7097 77.2097C52.1237 77.7958 51.3288 78.125 50.5 78.125C49.6712 78.125 48.8763 77.7958 48.2903 77.2097C47.7042 76.6237 47.375 75.8288 47.375 75V62.5C47.375 61.6712 47.7042 60.8763 48.2903 60.2903C48.8763 59.7042 49.6712 59.375 50.5 59.375H150.5C151.329 59.375 152.124 59.7042 152.71 60.2903C153.296 60.8763 153.625 61.6712 153.625 62.5Z" fill="#4554CE"/>
</svg>
